<svg width="266" height="41" viewBox="0 0 266 41" fill="none" xmlns="http://www.w3.org/2000/svg">
<path d="M54.848 34.196C53.4107 34.196 52.1227 33.9627 50.984 33.496C49.8453 33.0293 48.9307 32.3387 48.24 31.424C47.568 30.5093 47.2133 29.408 47.176 28.12H52.272C52.3467 28.848 52.5987 29.408 53.028 29.8C53.4573 30.1733 54.0173 30.36 54.708 30.36C55.4173 30.36 55.9773 30.2013 56.388 29.884C56.7987 29.548 57.004 29.0907 57.004 28.512C57.004 28.0267 56.836 27.6253 56.5 27.308C56.1827 26.9907 55.7813 26.7293 55.296 26.524C54.8293 26.3187 54.1573 26.0853 53.28 25.824C52.0107 25.432 50.9747 25.04 50.172 24.648C49.3693 24.256 48.6787 23.6773 48.1 22.912C47.5213 22.1467 47.232 21.148 47.232 19.916C47.232 18.0867 47.8947 16.6587 49.22 15.632C50.5453 14.5867 52.272 14.064 54.4 14.064C56.5653 14.064 58.3107 14.5867 59.636 15.632C60.9613 16.6587 61.6707 18.096 61.764 19.944H56.584C56.5467 19.3093 56.3133 18.8147 55.884 18.46C55.4547 18.0867 54.904 17.9 54.232 17.9C53.6533 17.9 53.1867 18.0587 52.832 18.376C52.4773 18.6747 52.3 19.1133 52.3 19.692C52.3 20.3267 52.5987 20.8213 53.196 21.176C53.7933 21.5307 54.7267 21.9133 55.996 22.324C57.2653 22.7533 58.292 23.164 59.076 23.556C59.8787 23.948 60.5693 24.5173 61.148 25.264C61.7267 26.0107 62.016 26.972 62.016 28.148C62.016 29.268 61.7267 30.2853 61.148 31.2C60.588 32.1147 59.7667 32.8427 58.684 33.384C57.6013 33.9253 56.3227 34.196 54.848 34.196ZM72.5786 34.196C70.7306 34.196 69.0319 33.7667 67.4826 32.908C65.9519 32.0493 64.7292 30.8547 63.8146 29.324C62.9186 27.7747 62.4706 26.0387 62.4706 24.116C62.4706 22.1933 62.9186 20.4667 63.8146 18.936C64.7292 17.4053 65.9519 16.2107 67.4826 15.352C69.0319 14.4933 70.7306 14.064 72.5786 14.064C74.4266 14.064 76.1159 14.4933 77.6466 15.352C79.1959 16.2107 80.4092 17.4053 81.2866 18.936C82.1826 20.4667 82.6306 22.1933 82.6306 24.116C82.6306 26.0387 82.1826 27.7747 81.2866 29.324C80.3906 30.8547 79.1772 32.0493 77.6466 32.908C76.1159 33.7667 74.4266 34.196 72.5786 34.196ZM72.5786 29.828C74.1466 29.828 75.3972 29.3053 76.3306 28.26C77.2826 27.2147 77.7586 25.8333 77.7586 24.116C77.7586 22.38 77.2826 20.9987 76.3306 19.972C75.3972 18.9267 74.1466 18.404 72.5786 18.404C70.9919 18.404 69.7226 18.9173 68.7706 19.944C67.8372 20.9707 67.3706 22.3613 67.3706 24.116C67.3706 25.852 67.8372 27.2427 68.7706 28.288C69.7226 29.3147 70.9919 29.828 72.5786 29.828ZM95.5143 23.92C96.6529 24.1627 97.5676 24.732 98.2583 25.628C98.9489 26.5053 99.2943 27.5133 99.2943 28.652C99.2943 30.2947 98.7156 31.6013 97.5583 32.572C96.4196 33.524 94.8236 34 92.7703 34H83.6143V14.344H92.4623C94.4596 14.344 96.0183 14.8013 97.1383 15.716C98.2769 16.6307 98.8463 17.872 98.8463 19.44C98.8463 20.5973 98.5383 21.5587 97.9223 22.324C97.3249 23.0893 96.5223 23.6213 95.5143 23.92ZM88.4023 22.296H91.5383C92.3223 22.296 92.9196 22.128 93.3303 21.792C93.7596 21.4373 93.9743 20.924 93.9743 20.252C93.9743 19.58 93.7596 19.0667 93.3303 18.712C92.9196 18.3573 92.3223 18.18 91.5383 18.18H88.4023V22.296ZM91.9303 30.136C92.7329 30.136 93.3489 29.9587 93.7783 29.604C94.2263 29.2307 94.4503 28.6987 94.4503 28.008C94.4503 27.3173 94.2169 26.776 93.7503 26.384C93.3023 25.992 92.6769 25.796 91.8743 25.796H88.4023V30.136H91.9303ZM112.627 30.528H105.291L104.115 34H99.1033L106.215 14.344H111.759L118.871 34H113.803L112.627 30.528ZM111.395 26.832L108.959 19.636L106.551 26.832H111.395ZM133.496 14.344V18.18H128.288V34H123.5V18.18H118.292V14.344H133.496ZM139.007 30.304H145.279V34H134.219V14.344H139.007V30.304ZM158.119 30.528H150.783L149.607 34H144.595L151.707 14.344H157.251L164.363 34H159.295L158.119 30.528ZM156.887 26.832L154.451 19.636L152.043 26.832H156.887ZM182.431 34H177.643L169.635 21.876V34H164.847V14.344H169.635L177.643 26.524V14.344H182.431V34ZM183.41 24.144C183.41 22.2027 183.83 20.476 184.67 18.964C185.51 17.4333 186.676 16.248 188.17 15.408C189.682 14.5493 191.39 14.12 193.294 14.12C195.627 14.12 197.624 14.736 199.286 15.968C200.947 17.2 202.058 18.88 202.618 21.008H197.354C196.962 20.1867 196.402 19.5613 195.674 19.132C194.964 18.7027 194.152 18.488 193.238 18.488C191.763 18.488 190.568 19.0013 189.654 20.028C188.739 21.0547 188.282 22.4267 188.282 24.144C188.282 25.8613 188.739 27.2333 189.654 28.26C190.568 29.2867 191.763 29.8 193.238 29.8C194.152 29.8 194.964 29.5853 195.674 29.156C196.402 28.7267 196.962 28.1013 197.354 27.28H202.618C202.058 29.408 200.947 31.088 199.286 32.32C197.624 33.5333 195.627 34.14 193.294 34.14C191.39 34.14 189.682 33.72 188.17 32.88C186.676 32.0213 185.51 30.836 184.67 29.324C183.83 27.812 183.41 26.0853 183.41 24.144ZM208.658 18.18V22.156H215.07V25.852H208.658V30.164H215.91V34H203.87V14.344H215.91V18.18H208.658ZM227.362 34L223.274 26.58H222.126V34H217.338V14.344H225.374C226.924 14.344 228.24 14.6147 229.322 15.156C230.424 15.6973 231.245 16.444 231.786 17.396C232.328 18.3293 232.598 19.3747 232.598 20.532C232.598 21.8387 232.225 23.0053 231.478 24.032C230.75 25.0587 229.668 25.7867 228.23 26.216L232.766 34H227.362ZM222.126 23.192H225.094C225.972 23.192 226.625 22.9773 227.054 22.548C227.502 22.1187 227.726 21.512 227.726 20.728C227.726 19.9813 227.502 19.3933 227.054 18.964C226.625 18.5347 225.972 18.32 225.094 18.32H222.126V23.192Z" fill="black"/>
<path d="M0 4.8C0 2.70132 1.70132 1 3.8 1H34.2C36.2987 1 38 2.70132 38 4.8V35.2C38 37.2987 36.2987 39 34.2 39H3.8C1.70132 39 0 37.2987 0 35.2V4.8Z" fill="white"/>
<path d="M0.791667 5.59167C0.791667 3.49298 2.49298 1.79167 4.59167 1.79167H33.4083C35.507 1.79167 37.2083 3.49298 37.2083 5.59167V34.4083C37.2083 36.507 35.507 38.2083 33.4083 38.2083H4.59167C2.49298 38.2083 0.791667 36.507 0.791667 34.4083V5.59167Z" fill="#4F77FD"/>
<path d="M21.7995 15.9851C22.571 16.7517 23.3523 17.5281 24 18.1667C24.75 18.9061 25.25 18.3784 25.3333 17.8784V15.4167C25.3333 14.5 24.8333 13.8333 24.5 13.5C24.48 13.48 24.4136 13.413 24.3107 13.3091C23.7267 12.7196 21.9669 10.9432 20.8333 9.83333C20.3889 9.52778 19.3 8.91667 18.5 8.91667H16.9167L16.3333 9.08333L15.5 9.41667L14.5833 10.0833L14.0833 10.5833L13.3333 11.5833L13.0833 12.0833L12.8333 12.6667L12.6667 14V14.5C12.6945 14.6667 12.75 15.0333 12.75 15.1667C12.75 15.3 12.8056 15.6667 12.8333 15.8333C12.8333 15.8889 12.8667 16.0667 13 16.3333C13.1333 16.6 13.2778 16.8333 13.3333 16.9167L23.8333 27.5833C23.8889 27.6389 24.0333 27.7333 24.1667 27.6667C24.3 27.6 24.7222 26.9722 24.9167 26.6667C25.0833 25.9167 25.3167 24.2667 24.9167 23.6667C24.5167 23.0667 19.1944 17.6389 16.5833 15L16.3333 14.6667C16.3056 14.4444 16.2833 13.9333 16.4167 13.6667C16.55 13.4 17.0278 12.8889 17.25 12.6667C17.4722 12.5278 18.0167 12.3333 18.4167 12.6667C18.6853 12.8905 20.2219 14.4174 21.7995 15.9851Z" fill="white"/>
<path d="M23.4167 27.75C23.5278 27.8055 23.6833 28.15 23.4167 28.4167C23.3683 28.465 23.3059 28.5319 23.2291 28.6142C22.8824 28.9857 22.2404 29.6738 21.25 30.4166C19.9167 31.4166 17.9167 31.4166 16.1667 29.5C16.0865 29.4121 15.985 29.33 15.8227 29.1985C15.4703 28.9131 14.8312 28.3955 13.5 27.0833C12.8333 26.25 12.6667 25.9166 12.6667 25V22.25C12.6667 21.3333 13.3877 21.471 13.6667 21.75C13.6942 21.7775 13.8251 21.9119 14.0328 22.1253C14.8319 22.9461 16.7681 24.9347 18.3333 26.5C18.4167 26.6111 19.1667 27.5 19.8333 26.9167C19.9817 26.7868 20.2878 26.4734 20.5442 26.2108C20.6556 26.0968 20.7576 25.9923 20.8333 25.9167C20.9167 25.8333 21.45 25.7167 21.5833 25.9167C21.7167 26.1166 22.7778 27.1389 23.4167 27.75Z" fill="white"/>
</svg>
